<svg xmlns="http://www.w3.org/2000/svg" viewBox="0 0 28 28" fill="none"><rect width="28" height="28" fill="url(#a)" rx="6.376"/><path fill="#fff" fill-rule="evenodd" d="M22.367 16.185a.986.986 0 0 0-.701.61l-2.584-.363a.978.978 0 0 0-.08-.314l2.945-2.19a.98.98 0 0 0 .42.211zm-1.276 3.006a.984.984 0 0 0-1.2 1.355l-1.69 1.33a.982.982 0 0 0-.32-.173l.357-4.213a.985.985 0 0 0 .783-.624l2.584.362a.98.98 0 0 0 .297.624zm-3.646 2.475a.978.978 0 0 0-.317.102l-.918-1.08a.98.98 0 0 0-.038-1.228l1.53-2.045a.968.968 0 0 0 .1.039zm-1.623-2.468a.973.973 0 0 0-.181-.06v-4.999a.977.977 0 0 0 .211-.074l1.478 1.84a.98.98 0 0 0 .022 1.248zm.29-12.072a.976.976 0 0 0 .229-.062l1.715 2.447a.98.98 0 0 0-.132 1.138l-1.932 1.728a.98.98 0 0 0-.277-.138zm.26-2.979a.983.983 0 0 0 .64-.362l1.279.617a.986.986 0 0 0 .66 1.157l-.304 3.638a.976.976 0 0 0-.233.063l-1.715-2.447a.985.985 0 0 0-.424-1.596zm3.016 1.449a.974.974 0 0 0 .261-.075l1.694 2.264a.98.98 0 0 0-.2.892l-1.612.853a.985.985 0 0 0-.448-.296zm2.085 3.59-1.005 2.038-.794-.628a.98.98 0 0 0 .062-.68l1.612-.852c.038.044.08.085.125.122m-5.19 3.517 1.933-1.728a.98.98 0 0 0 1.186-.036l.868.687-1.94 3.932a.982.982 0 0 0-.66.072l-1.477-1.84a.98.98 0 0 0 .09-1.087m5.403.874-2.945 2.19-.018-.015 1.898-3.849 1.077.852a.981.981 0 0 0-.012.822m.18-4.198a.975.975 0 0 0 .109.02l.295 2.849a.98.98 0 0 0-.3.165l-1.152-.911zm.939 6.806v-2.046a.984.984 0 0 0-.1-1.936l-.295-2.849a.985.985 0 1 0-.716-1.832L20 5.258a.984.984 0 1 0-1.52-1.25l-1.278-.617a.984.984 0 1 0-1.265.716l-.098 1.07a.984.984 0 0 0-.163 1.915l-.398 5.114a.985.985 0 0 0-.075 1.933v4.999a.984.984 0 1 0 .674 1.833l.917 1.08a.984.984 0 1 0 1.678.169l1.69-1.33a.984.984 0 0 0 1.303-1.473l.81-1.338a.985.985 0 1 0 .53-1.894M12.36 19.138a.973.973 0 0 0-.181.06l-1.53-2.045a.98.98 0 0 0 .021-1.248l1.478-1.84a.984.984 0 0 0 .212.074zm-.57 1.55-.918 1.08a.98.98 0 0 0-.317-.102l-.358-4.213a.974.974 0 0 0 .1-.038l1.53 2.045a.98.98 0 0 0-.037 1.227M9.8 21.876l-1.691-1.33a.984.984 0 0 0-1.2-1.356l-.81-1.338a.98.98 0 0 0 .296-.624l2.584-.362c.125.33.423.574.783.624l.357 4.213a.983.983 0 0 0-.32.172m-4.167-5.691v-2.046a.98.98 0 0 0 .42-.211l2.945 2.19a.978.978 0 0 0-.08.314l-2.584.363a.986.986 0 0 0-.701-.61m.392-6.786a.976.976 0 0 0 .11-.02l1.047 2.123-1.151.91a.98.98 0 0 0-.3-.164zm.628-.335 1.612.852a.984.984 0 0 0 .062.68l-.794.628-1.006-2.038a.989.989 0 0 0 .126-.122M8.35 5.52c.082.036.17.062.262.075l.305 3.638a.985.985 0 0 0-.448.296l-1.612-.853a.985.985 0 0 0-.2-.892zm1.384-.9a.987.987 0 0 0-.025-.22l1.28-.616a.983.983 0 0 0 .638.362l.098 1.07a.985.985 0 0 0-.424 1.596L9.586 9.26a.977.977 0 0 0-.234-.063L9.048 5.56a.985.985 0 0 0 .686-.938M7.73 11.626l.868-.687a.98.98 0 0 0 1.186.036l1.933 1.728a.98.98 0 0 0 .09 1.088l-1.478 1.84a.98.98 0 0 0-.659-.073zm-1.427 1.13 1.077-.853 1.898 3.849a1.4 1.4 0 0 0-.019.015l-2.944-2.19a.98.98 0 0 0-.012-.822m5.584-5.63.398 5.113a.98.98 0 0 0-.277.138l-1.932-1.728a.98.98 0 0 0-.132-1.138l1.715-2.447c.072.03.149.05.228.062m1.675 6.054a.985.985 0 0 0-.84-.974l-.398-5.114a.985.985 0 0 0-.163-1.915l-.098-1.07a.985.985 0 1 0-1.265-.716l-1.279.617A.984.984 0 1 0 8 5.258L6.307 7.522a.984.984 0 1 0-.716 1.832l-.295 2.849a.984.984 0 0 0-.1 1.936v2.046a.985.985 0 1 0 .53 1.894l.81 1.338a.984.984 0 0 0 1.303 1.473l1.69 1.33a.984.984 0 1 0 1.678-.169l.918-1.08a.984.984 0 1 0 .673-1.833v-4.999a.984.984 0 0 0 .765-.96" clip-rule="evenodd"/><path fill="#78E0FF" fill-opacity=".32" fill-rule="evenodd" d="M7.492 24.145c-1.338 0-1.771-.267-1.872-.348-.897-.727-1.19-2.856-1.19-3.508 0-.327.028-.795.27-1.083.045-.054.26-.24 1.134-.377a11.32 11.32 0 0 1 1.658-.126c2.582 0 3.361.689 3.491.827.278.295.42.744.42 1.333 0 .876-.282 1.564-.517 1.987-.288.517-.634.859-.85.968-.359.183-1.476.326-2.544.326" clip-rule="evenodd" style="mix-blend-mode:overlay"/><path fill="url(#b)" fill-opacity=".4" fill-rule="evenodd" d="M7.492 24.145c-1.338 0-1.771-.267-1.872-.348-.897-.727-1.19-2.856-1.19-3.508 0-.327.028-.795.27-1.083.045-.054.26-.24 1.134-.377a11.32 11.32 0 0 1 1.658-.126c2.582 0 3.361.689 3.491.827.278.295.42.744.42 1.333 0 .876-.282 1.564-.517 1.987-.288.517-.634.859-.85.968-.359.183-1.476.326-2.544.326" clip-rule="evenodd"/><path fill="#78E0FF" fill-opacity=".32" fill-rule="evenodd" d="M20.508 24.145c1.338 0 1.771-.267 1.872-.348.897-.727 1.19-2.856 1.19-3.508 0-.327-.028-.795-.27-1.083-.045-.054-.26-.24-1.134-.377a11.318 11.318 0 0 0-1.658-.126c-2.582 0-3.361.689-3.491.827-.278.295-.42.744-.42 1.333 0 .876.281 1.564.517 1.987.288.517.634.859.85.968.359.183 1.476.326 2.544.326" clip-rule="evenodd" style="mix-blend-mode:overlay"/><path fill="url(#c)" fill-opacity=".4" fill-rule="evenodd" d="M20.508 24.145c1.338 0 1.771-.267 1.872-.348.897-.727 1.19-2.856 1.19-3.508 0-.327-.028-.795-.27-1.083-.045-.054-.26-.24-1.134-.377a11.318 11.318 0 0 0-1.658-.126c-2.582 0-3.361.689-3.491.827-.278.295-.42.744-.42 1.333 0 .876.281 1.564.517 1.987.288.517.634.859.85.968.359.183 1.476.326 2.544.326" clip-rule="evenodd"/><path fill="url(#d)" fill-rule="evenodd" d="M23.352 20.29c-.002.537-.266 2.654-1.11 3.337-.038.03-.435.299-1.598.299-.683 0-1.53-.035-1.998-.123-.536-.1-.728-.206-1-.534-.39-.466-.83-1.334-.83-2.406 0-.532.121-.93.36-1.183.05-.054.256-.244.772-.421.65-.224 1.51-.337 2.56-.337.523 0 1.124.046 1.61.12 1.35.208 1.236.495 1.234 1.247m-12.997 2.98c-.273.328-.464.434-1 .534-.468.088-1.316.123-2 .123-1.161 0-1.56-.269-1.597-.3-.844-.682-1.107-2.799-1.11-3.337-.002-.752-.115-1.039 1.235-1.247.485-.074 1.087-.12 1.61-.12 1.05 0 1.91.113 2.559.337.516.177.722.367.772.42.239.254.36.652.36 1.184 0 1.072-.44 1.94-.83 2.407m15.771-5.03a.419.419 0 0 0-.324-.35c-.48-.108-1.704-.308-4.145-.308-4.758 0-5.168.608-7.656.608-2.488 0-2.898-.608-7.656-.608-2.441 0-3.664.2-4.145.308a.419.419 0 0 0-.324.35c-.01.064-.016.137-.016.217 0 .242.005.378.082.52.121.22 1.149.656 1.313 1.53.164.876.547 3.118 1.367 3.938.547.547 1.777.657 3.035.657 1.538 0 2.536-.212 2.926-.4.3-.143 1.398-.665 1.887-2.854.369-1.655.341-1.79.712-2.058.262-.188.655-.24.819-.24.164 0 .557.052.819.24.37.267.343.403.712 2.058.489 2.19 1.586 2.71 1.887 2.855.39.187 1.388.399 2.926.399 1.258 0 2.488-.11 3.035-.657.82-.82 1.203-3.062 1.367-3.937.164-.875 1.192-1.311 1.313-1.531.077-.142.082-.278.082-.52 0-.08-.007-.154-.016-.218" clip-rule="evenodd"/><path fill="#CC7323" fill-rule="evenodd" d="M15.811 18.83c0 .458-.338 1.069-.614 1.49a.081.081 0 0 1-.111.025c-.275-.175-.641-.193-1.086-.193-.439 0-.84.036-1.1.229a.082.082 0 0 1-.121-.027c-.25-.473-.355-1.055-.355-1.055v-.469z" clip-rule="evenodd"/><path fill="#E4AA65" fill-rule="evenodd" d="M16.214 18.662c0 .148-.188.374-.475.585a2.844 2.844 0 0 1-.23.153 3.758 3.758 0 0 1-.743.36c-.257.086-.55.143-.9.143-.294 0-.542-.021-.75-.058a1.97 1.97 0 0 1-.609-.198c-.286-.157-.385-.359-.385-.515 0-.254.048-.626.242-1.037l.012-.025a.082.082 0 0 1 .084-.046c.452.055.935.09 1.54.09.789 0 1.368-.06 1.945-.144a.082.082 0 0 1 .085.044l.012.024c.077.161.172.405.172.624" clip-rule="evenodd"/><defs><linearGradient id="a" x1="0" x2="0" y1="0" y2="28" gradientUnits="userSpaceOnUse"><stop stop-color="#2196F3"/><stop offset="1" stop-color="#1478EE"/></linearGradient><linearGradient id="b" x1="4.43" x2="4.43" y1="18.703" y2="24.145" gradientUnits="userSpaceOnUse"><stop stop-color="#70FAEE"/><stop offset="1" stop-color="#70FAEE" stop-opacity=".01"/></linearGradient><linearGradient id="c" x1="16.598" x2="16.598" y1="18.703" y2="24.145" gradientUnits="userSpaceOnUse"><stop stop-color="#70FAEE"/><stop offset="1" stop-color="#70FAEE" stop-opacity=".01"/></linearGradient><linearGradient id="d" x1="1.859" x2="1.859" y1="17.582" y2="25.102" gradientUnits="userSpaceOnUse"><stop stop-color="#1E1E1E"/><stop offset="1"/></linearGradient></defs><script xmlns=""/></svg>