<?xml version="1.0" encoding="UTF-8" standalone="no"?>
<svg
   width="256mm"
   height="256mm"
   viewBox="0 0 256 256"
   version="1.1"
   id="svg8"
   inkscape:version="1.1.1 (3bf5ae0d25, 2021-09-20)"
   sodipodi:docname="icon_dark.svg"
   xmlns:inkscape="http://www.inkscape.org/namespaces/inkscape"
   xmlns:sodipodi="http://sodipodi.sourceforge.net/DTD/sodipodi-0.dtd"
   xmlns="http://www.w3.org/2000/svg"
   xmlns:svg="http://www.w3.org/2000/svg"
   xmlns:rdf="http://www.w3.org/1999/02/22-rdf-syntax-ns#"
   xmlns:cc="http://creativecommons.org/ns#"
   xmlns:dc="http://purl.org/dc/elements/1.1/">
  <defs
     id="defs2">
    <inkscape:path-effect
       effect="powerclip"
       id="path-effect871"
       is_visible="true"
       lpeversion="1"
       inverse="true"
       flatten="false"
       hide_clip="false"
       message="Use fill-rule evenodd on &lt;b&gt;fill and stroke&lt;/b&gt; dialog if no flatten result after convert clip to paths." />
    <inkscape:path-effect
       down_right_point="5224.552,7139.8311"
       down_left_point="214.69325,5825.2943"
       up_right_point="5603.3041,-252.30436"
       up_left_point="163.04522,1147.5919"
       effect="perspective-envelope"
       id="path-effect4575"
       is_visible="true"
       deform_type="perspective"
       horizontal_mirror="false"
       vertical_mirror="false"
       overflow_perspective="false" />
    <clipPath
       clipPathUnits="userSpaceOnUse"
       id="clipPath4580">
      <rect
         style="opacity:1;fill:#2d2f31;fill-opacity:1;stroke:none;stroke-width:0.84272915;stroke-linejoin:miter;stroke-miterlimit:4;stroke-dasharray:none;stroke-opacity:1"
         id="rect4582"
         width="583.0127"
         height="578.13275"
         x="-111.09394"
         y="-684.35602"
         transform="scale(1,-1)" />
    </clipPath>
    <clipPath
       clipPathUnits="userSpaceOnUse"
       id="clipPath849">
      <rect
         style="opacity:1;fill:#2d2f31;fill-opacity:1;stroke:none;stroke-width:8.42729187;stroke-linejoin:miter;stroke-miterlimit:4;stroke-dasharray:none;stroke-opacity:1"
         id="rect851"
         width="5830.127"
         height="5781.3271"
         x="-1110.9395"
         y="-6843.5601"
         transform="scale(1,-1)" />
    </clipPath>
    <clipPath
       clipPathUnits="userSpaceOnUse"
       id="clipPath867">
      <path
         d="m 256.26,195.617 c -16.798,4.393 -32.253,-63.497 -12.413,-59.99 36.69301,14.705 31.75099,49.49 12.413,59.99 z m -16.385,43.287 c -18.334,17.829 -42.287,14.034 -50.832,6.955 -8.659,-8.439 -2.707,-28.858 8.901,-39.293 v -0.005 c 13.868,-11.952 29.615,-19.639 41.599,-11.706 8.435,6.965 14.354,31.636 0.332,44.046 z m -58.041,-32.416 c 0.472,16.336 -15.333,27.078 -33.967,24.072 -17.308,-2.792 -30.589,-16.563 -30.746,-30.835 -10e-4,-0.089 -10e-4,-0.18 -0.002,-0.271 -0.154,-14.154 12.664,-24.929 29.683,-24.115 18.299,0.876 34.558,14.652 35.025,30.839 0.003,0.104 0.005,0.206 0.007,0.31 z m -33.502,61.27401 C 132.549,264.576 117.967,248.727 118.128,244.515 c -0.247,-6.259 17.982,-7.755 30.695,-5.125 13.489,1.93 32.926,10.24 33.106,16.61 0.387,6.252 -17.313,15.96499 -33.597,11.76201 z M 97.443099,174.298 C 87.038799,166.751 85.268001,151.053 93.228501,138.553 101.436,125.666 117.446,120.083 129.326,126.776 c 12.566,7.078 15.113,24.656 5.327,38.442 -9.46,13.328 -26.242,17.037 -37.209901,9.08 z M 109.481,231.42 c -6.147,2.631 -20.4144,-1.582 -29.936201,-17.885 -6.1287,-12.849 -5.266499,-24.815 -0.9193,-27.975 6.653501,-3.761 17.322601,3.038 25.943501,14.109 7.838,10.415 11.577,27.922 4.912,31.751 z M 70.952299,181.997 c -8.853098,-8.512 -11.409198,-31.209 5.158401,-41.63 10.605199,-3.267 3.2901,46.399 -5.158401,41.63 z M 114.734,99.049495 C 122.646,99.440197 80.1546,139.452 79.5972,131.529 79.094899,111.039 94.5852,98.038697 114.734,99.049495 Z m -26.145301,-7.3313 c 1.504201,-0.523298 2.2123,-0.929799 2.923,-2.162998 -3.698898,-0.6747 -7.611599,-1.133602 -9.871998,-2.752402 1.220899,-0.1675 2.365899,-0.0725 3.9843,-1.466699 -3.217802,-1.289698 -6.5962,-2.158101 -9.1727,-4.423198 1.611598,-0.309103 3.363299,-0.577303 3.878398,-1.285801 -2.864599,-1.362602 -5.246299,-2.9888 -7.191399,-4.858801 2.217399,-0.123499 3.1629,-0.5388 3.707799,-1.046699 -2.122598,-1.8903 -4.780999,-3.2986 -6.0213,-5.835402 1.618901,0.266102 3.1139,0.195303 4.2052,-0.896098 -0.7102,-1.5566 -3.7616,-1.924601 -5.471398,-5.4849 1.694299,-0.1943 3.5061,-0.368602 3.873598,-0.8406 -0.773798,-3.228901 -2.118699,-4.826701 -3.427299,-6.486401 3.6454,-0.912399 9.293601,-2.166001 9.036201,-2.434799 L 76.7348,49.843596 c 3.680499,-1.9128 7.504199,-1.644901 10.325899,-1.427001 1.283102,-1.327798 -0.01569,-2.301499 -1.562598,-3.231999 3.2501,-0.363299 6.229998,-0.3341 8.959998,0.057 1.475201,-1.6792 -0.947999,-2.398398 -2.109599,-3.418399 5.206799,-0.323001 7.452799,0.5099 9.7085,1.358199 1.649,-1.9445 0.091,-2.867401 -1.017,-3.9252 4.077,0.447001 6.212,1.831401 8.483,3.178601 0.77,-1.187 1.963,-2.2123 0.511,-4.271401 3.013,0.9091 5.314,2.311601 7.038,4.111101 1.909,-1.604201 1.124,-2.988601 1.127,-4.436901 3.257,1.683401 5.358,3.836501 7.956,5.840801 0.52,-0.471702 0.969,-1.772801 1.359,-3.757401 8.22,5.367401 20.515,21.666801 3.223,32.1295 -13.902,-8.2199 -29.364,-12.6532 -45.259801,-14.6812 C 106.148,63.711597 119.2,70.272097 126.732,76.866797 c -3.765,15.117 -23.009,18.175999 -29.651999,18.6159 1.3432,-0.793699 2.470198,-1.688301 2.8706,-2.8957 -1.6558,-0.951802 -7.427802,0.8514 -11.361902,-0.868802 z M 145.706,90.083697 v 0 c 13.073,-1.7477 30.473,5.340998 30.587,14.083303 0.103,7.747 -12.019,14.795 -30.096,15.798 -16.484,0.843 -27.005,-5.361 -27.008,-12.036 -0.002,-5.476 12.58,-16.446004 26.517,-17.845303 z m 17.797,-58.670401 c 0.51,1.9216 1.069,3.086301 1.689,3.326201 3.009,-3.539601 5.481,-7.049201 9.458,-10.775301 0.049,1.6144 -0.893,3.6064 1.561,4.3166 2.147,-3.0222 5.102,-5.9905 9.098,-8.8995 -1.886,3.2794 -0.246,3.7352 0.839,4.6434 3.084,-2.9821 6.044,-5.9861 11.948,-9.2392 -1.595,2.0256 -3.83,4.1626 -1.361,5.424 3.318,-2.5194 6.699,-5.072 14.93,-8.3646 -1.833,2.1264 -5.64,4.7269 -3.257,5.8062 4.382,-2.4094 9.326,-4.6053 14.916,-6.5607 -2.642,2.3779 -4.817,4.5943 -2.577,5.3924 4.916,-2.3648 11.825,-5.6509 18.859,-5.9511 l -4.311,4.4165 c -0.472,0.5629 10.519,-2.1185 18.012,-3.7969 -2.636,3.4471 -5.308,6.7826 -6.727,11.9397 0.763,0.3929 4.464,-0.7194 8,-1.7361 -3.396,6.395802 -9.562,9.0898 -10.9,11.7612 2.218,0.790501 5.237,-0.132998 8.552,-1.643499 -2.441,4.4827 -7.731,8.223599 -11.806,12.1906 1.08,0.371599 2.951,0.370898 7.38,-0.835602 -3.803,3.830802 -8.377,7.490301 -13.742,10.955002 0.991,0.6863 4.319,0.0989 7.442,-0.365001 -4.848,4.519901 -11.084,7.423901 -16.787,10.701001 2.927,1.091499 4.986,0.423299 7.223,0.0649 -4.038,3.2351 -10.884,5.585198 -17.089,8.026501 1.225,1.291799 2.425,1.5269 4.988,1.589399 -6.5,3.777898 -15.721,3.689401 -18.215,5.4682 0.651,1.3409 2.407,2.046898 4.515,2.559798 -10.029,1.729402 -35.715,4.187503 -40.649,-11.0564 8.912,-10.1248 26.065,-23.647598 58.387,-43.671598 -25.555,12.304799 -46.691,25.293701 -63.122,39.960399 -18.388,-4.444601 -6.255,-25.918999 2.746,-35.6465 z M 209.212,178.913 c -16.133,7.88 -38.216,0.943 -49.562,-14.36 -10.779,-14.538 -8.636,-32.427 4.916,-40.982 14.268,-9.009 36.709,-4.989 50.078,10.156 14.148,16.028 11.642,36.848 -5.432,45.186 z m 29.183,-53.558 c -0.719,10.974 -66.787,-30.555605 -56.777,-33.083805 29.223,-7.402798 56.846,4.720601 56.777,33.083805 z m 17.435,4.038 -3.103,-3.772 c -1.043,-27.584404 -17.9,-36.953705 -36.152,-42.959204 5.271,-1.755799 10.829,-3.3685 12.187,-8.915598 9.513,-3.191301 11.422,-6.918601 12.261,-10.709402 2.527,-1.688299 11.17,-6.731799 9.967,-12.9236 4.899,-3.4114 7.578,-7.200299 5.933,-11.5936 5.287,-5.400899 6.577,-9.2975 4.081,-12.1387 6.39,-7.3701 3.273,-9.8111 0.3,-12.2867 4.67099,-7.6267397 -0.029,-13.48019363 -13.433,-9.0001296 -5.414,-4.32171604 -16.34,-0.2539101 -17.999,0.19432 -1.911,-1.2828 -4.381,-2.15407 -11.666,0.4657699 -4.736,-2.00361 -9.807,-0.1133599 -14.91,2.79214 -6.096,-2.1480399 -9.906,1.8498997 -14.254,4.1086997 -6.908,-0.0241 -8.396,2.8605 -11.661,4.7149 -7.183,0.5906 -9.264,3.8583 -12.546,7.5583 l -3.828,0.8872 c -9.989,7.593501 -14.708,19.0609 -16.345,24.7354 -1.762,-4.938199 -6.577,-14.061199 -15.798,-16.739899 l -3.301,0.880898 c -2.822,-1.9236 -4.593,-3.946498 -10.272,-1.350499 -2.519,-0.2339 -3.683,-2.0921 -8.688,0.787799 -2.02,-0.0892 -3.863,-0.880898 -6.01,-0.247898 l 0.004,5.29e-4 c -1.116103,0.328901 -2.312502,1.0468 -3.661303,2.448801 -3.269599,-0.388602 -6.391899,0.0075 -9.153001,3.2342 -4.185099,0.538099 -5.5333,2.0144 -6.551498,3.5877 -0.8982,0.209698 -6.6264,0.756499 -9.231202,5.423998 -6.334299,0.780801 -8.341997,5.9534 -6.152298,9.825302 -1.2945,2.3989 -2.627802,4.7699 0.315399,8.174799 -1.079899,2.472201 -0.444899,4.7918 2.048,7.2921 -0.6945,3.326701 0.6037,5.359799 2.973501,6.726401 -0.4812,4.510299 3.826701,6.4345 5.131401,7.169198 0.489899,2.556002 1.534599,4.897702 6.664399,5.5871 0.8437,3.888801 4.007001,4.190402 7.1165,4.660501 -10.1454,7.227304 -18.514502,15.884304 -18.5958,35.082304 l -1.417701,2.739 c -10.6949,7.353 -20.089199,29.621 -5.740599,49.053 0.938999,6.044 2.578698,10.521 4.0459,15.486 2.1335,19.849 17.672601,32.116 21.987399,34.106 6.487599,6.504 13.635903,13.054 23.709903,18.906 9.991,12.58699 21.312,19.46399 33.241,22.553 0.178,0.046 0.362,0.096 0.541,0.13999 12.574,3.27001 25.654,2.30301 38.15,-6.24398 14.094,-1.09702 24.897,-4.98901 35.391,-9.51402 7.484,-0.048 37.417,-7.72899 41.101,-35.87999 3.00001,-6.757 6.46999,-12.829 8.31501,-21.642 35.037,-27.141 9.56699,-63.39 -14.99501,-73.404"
         style="display:none;fill:#2d2f31;fill-opacity:1;fill-rule:nonzero;stroke:none;stroke-width:0.0215235"
         id="path869"
         inkscape:connector-curvature="0" />
      <path
         id="lpe_path-effect871"
         style="fill:#2d2f31;fill-opacity:1;fill-rule:nonzero;stroke:none;stroke-width:0.0215235"
         class="powerclip"
         d="M 12.410513,10.887903 H 243.58891 V 245.10727 H 12.410513 Z M 256.26,195.617 c 19.33799,-10.5 24.28001,-45.285 -12.413,-59.99 -19.84,-3.507 -4.385,64.383 12.413,59.99 z m -16.385,43.287 v -0.003 c 14.022,-12.41 8.103,-37.081 -0.332,-44.046 -11.984,-7.933 -27.731,-0.246 -41.599,11.706 v 0.005 c -11.608,10.435 -17.56,30.854 -8.901,39.293 8.545,7.079 32.498,10.874 50.832,-6.955 z m -58.041,-32.416 c -0.002,-0.104 -0.004,-0.206 -0.007,-0.31 -0.467,-16.187 -16.726,-29.963 -35.025,-30.839 -17.019,-0.814 -29.837,9.961 -29.683,24.115 0.001,0.091 0.001,0.182 0.002,0.271 0.157,14.272 13.438,28.043 30.746,30.835 18.634,3.006 34.439,-7.736 33.967,-24.072 z m -33.502,61.27401 c 16.284,4.20298 33.984,-5.51001 33.597,-11.76201 -0.18,-6.37 -19.617,-14.68 -33.106,-16.61 -12.713,-2.63 -30.942,-1.134 -30.695,5.125 -0.161,4.212 14.421,20.061 30.204,23.24701 z M 97.443099,174.298 c 10.967901,7.957 27.749901,4.248 37.209901,-9.08 9.786,-13.786 7.239,-31.364 -5.327,-38.442 -11.88,-6.693 -27.89,-1.11 -36.097499,11.777 -7.9605,12.5 -6.189702,28.198 4.214598,35.745 z M 109.481,231.42 c 6.665,-3.829 2.926,-21.336 -4.912,-31.751 -8.6209,-11.071 -19.29,-17.87 -25.943501,-14.109 -4.347199,3.16 -5.2094,15.126 0.9193,27.975 C 89.0666,229.838 103.334,234.051 109.481,231.42 Z M 70.952299,181.997 c 8.448501,4.769 15.7636,-44.897 5.158401,-41.63 -16.567599,10.421 -14.011499,33.118 -5.158401,41.63 z M 114.734,99.049495 C 94.5852,98.038697 79.094899,111.039 79.5972,131.529 80.1546,139.452 122.646,99.440197 114.734,99.049495 Z m -26.145301,-7.3313 c 3.9341,1.720202 9.706102,-0.083 11.361902,0.868802 -0.400402,1.207399 -1.5274,2.102001 -2.8706,2.8957 6.642999,-0.439901 25.886999,-3.4989 29.651999,-18.6159 -7.532,-6.5947 -20.584,-13.1552 -41.254801,-19.497501 15.895801,2.028 31.357801,6.4613 45.259801,14.6812 17.292,-10.462699 4.997,-26.762099 -3.223,-32.1295 -0.39,1.9846 -0.839,3.285699 -1.359,3.757401 -2.598,-2.0043 -4.699,-4.1574 -7.956,-5.840801 -0.003,1.4483 0.782,2.8327 -1.127,4.436901 -1.724,-1.7995 -4.025,-3.202001 -7.038,-4.111101 1.452,2.059101 0.259,3.084401 -0.511,4.271401 -2.271,-1.3472 -4.406,-2.7316 -8.483,-3.178601 1.108,1.057799 2.666,1.9807 1.017,3.9252 -2.255701,-0.848299 -4.501701,-1.6812 -9.7085,-1.358199 1.1616,1.020001 3.5848,1.739199 2.109599,3.418399 -2.73,-0.3911 -5.709898,-0.420299 -8.959998,-0.057 1.546908,0.9305 2.8457,1.904201 1.562598,3.231999 -2.8217,-0.2179 -6.6454,-0.485799 -10.325899,1.427001 l 2.306301,1.899801 c 0.2574,0.268798 -5.390801,1.5224 -9.036201,2.434799 1.3086,1.6597 2.653501,3.2575 3.427299,6.486401 -0.367498,0.471998 -2.179299,0.6463 -3.873598,0.8406 1.709798,3.560299 4.761198,3.9283 5.471398,5.4849 -1.0913,1.091401 -2.586299,1.1622 -4.2052,0.896098 1.240301,2.536802 3.898702,3.945102 6.0213,5.835402 -0.544899,0.507899 -1.4904,0.9232 -3.707799,1.046699 1.9451,1.870001 4.3268,3.496199 7.191399,4.858801 -0.515099,0.708498 -2.2668,0.976698 -3.878398,1.285801 2.5765,2.265097 5.954898,3.1335 9.1727,4.423198 -1.618401,1.394199 -2.763401,1.299199 -3.9843,1.466699 2.260399,1.6188 6.1731,2.077702 9.871998,2.752402 -0.7107,1.233199 -1.418799,1.6397 -2.923,2.162998 z M 145.706,90.083697 C 131.769,91.482996 119.187,102.453 119.189,107.929 c 0.003,6.675 10.524,12.879 27.008,12.036 18.077,-1.003 30.199,-8.051 30.096,-15.798 -0.114,-8.742305 -17.514,-15.831003 -30.587,-14.083303 z m 17.797,-58.670401 c -9.001,9.727501 -21.134,31.201899 -2.746,35.6465 16.431,-14.666698 37.567,-27.6556 63.122,-39.960399 -32.322,20.024 -49.475,33.546798 -58.387,43.671598 4.934,15.243903 30.62,12.785802 40.649,11.0564 -2.108,-0.5129 -3.864,-1.218898 -4.515,-2.559798 2.494,-1.778799 11.715,-1.690302 18.215,-5.4682 -2.563,-0.0625 -3.763,-0.2976 -4.988,-1.589399 6.205,-2.441303 13.051,-4.791401 17.089,-8.026501 -2.237,0.358399 -4.296,1.026599 -7.223,-0.0649 5.703,-3.2771 11.939,-6.1811 16.787,-10.701001 -3.123,0.463901 -6.451,1.051301 -7.442,0.365001 5.365,-3.464701 9.939,-7.1242 13.742,-10.955002 -4.429,1.2065 -6.3,1.207201 -7.38,0.835602 4.075,-3.967001 9.365,-7.7079 11.806,-12.1906 -3.315,1.510501 -6.334,2.434 -8.552,1.643499 1.338,-2.6714 7.504,-5.365398 10.9,-11.7612 -3.536,1.0167 -7.237,2.129 -8,1.7361 1.419,-5.1571 4.091,-8.4926 6.727,-11.9397 -7.493,1.6784 -18.484,4.3598 -18.012,3.7969 l 4.311,-4.4165 c -7.034,0.3002 -13.943,3.5863 -18.859,5.9511 -2.24,-0.7981 -0.065,-3.0145 2.577,-5.3924 -5.59,1.9554 -10.534,4.1513 -14.916,6.5607 -2.383,-1.0793 1.424,-3.6798 3.257,-5.8062 -8.231,3.2926 -11.612,5.8452 -14.93,8.3646 -2.469,-1.2614 -0.234,-3.3984 1.361,-5.424 -5.904,3.2531 -8.864,6.2571 -11.948,9.2392 -1.085,-0.9082 -2.725,-1.364 -0.839,-4.6434 -3.996,2.909 -6.951,5.8773 -9.098,8.8995 -2.454,-0.7102 -1.512,-2.7022 -1.561,-4.3166 -3.977,3.7261 -6.449,7.2357 -9.458,10.775301 -0.62,-0.2399 -1.179,-1.404601 -1.689,-3.326201 z M 209.212,178.913 c 17.074,-8.338 19.58,-29.158 5.432,-45.186 -13.369,-15.145 -35.81,-19.165 -50.078,-10.156 -13.552,8.555 -15.695,26.444 -4.916,40.982 11.346,15.303 33.429,22.24 49.562,14.36 z m 29.183,-53.558 c 0.069,-28.363204 -27.554,-40.486603 -56.777,-33.083805 -10.01,2.5282 56.058,44.057805 56.777,33.083805 z m 17.435,4.038 -3.103,-3.772 c -1.043,-27.584404 -17.9,-36.953705 -36.152,-42.959204 5.271,-1.755799 10.829,-3.3685 12.187,-8.915598 9.513,-3.191301 11.422,-6.918601 12.261,-10.709402 2.527,-1.688299 11.17,-6.731799 9.967,-12.9236 4.899,-3.4114 7.578,-7.200299 5.933,-11.5936 5.287,-5.400899 6.577,-9.2975 4.081,-12.1387 6.39,-7.3701 3.273,-9.8111 0.3,-12.2867 4.67099,-7.6267397 -0.029,-13.48019363 -13.433,-9.0001296 -5.414,-4.32171604 -16.34,-0.2539101 -17.999,0.19432 -1.911,-1.2828 -4.381,-2.15407 -11.666,0.4657699 -4.736,-2.00361 -9.807,-0.1133599 -14.91,2.79214 -6.096,-2.1480399 -9.906,1.8498997 -14.254,4.1086997 -6.908,-0.0241 -8.396,2.8605 -11.661,4.7149 -7.183,0.5906 -9.264,3.8583 -12.546,7.5583 l -3.828,0.8872 c -9.989,7.593501 -14.708,19.0609 -16.345,24.7354 -1.762,-4.938199 -6.577,-14.061199 -15.798,-16.739899 l -3.301,0.880898 c -2.822,-1.9236 -4.593,-3.946498 -10.272,-1.350499 -2.519,-0.2339 -3.683,-2.0921 -8.688,0.787799 -2.02,-0.0892 -3.863,-0.880898 -6.01,-0.247898 l 0.004,5.29e-4 c -1.116103,0.328901 -2.312502,1.0468 -3.661303,2.448801 -3.269599,-0.388602 -6.391899,0.0075 -9.153001,3.2342 -4.185099,0.538099 -5.5333,2.0144 -6.551498,3.5877 -0.8982,0.209698 -6.6264,0.756499 -9.231202,5.423998 -6.334299,0.780801 -8.341997,5.9534 -6.152298,9.825302 -1.2945,2.3989 -2.627802,4.7699 0.315399,8.174799 -1.079899,2.472201 -0.444899,4.7918 2.048,7.2921 -0.6945,3.326701 0.6037,5.359799 2.973501,6.726401 -0.4812,4.510299 3.826701,6.4345 5.131401,7.169198 0.489899,2.556002 1.534599,4.897702 6.664399,5.5871 0.8437,3.888801 4.007001,4.190402 7.1165,4.660501 -10.1454,7.227304 -18.514502,15.884304 -18.5958,35.082304 l -1.417701,2.739 c -10.6949,7.353 -20.089199,29.621 -5.740599,49.053 0.938999,6.044 2.578698,10.521 4.0459,15.486 2.1335,19.849 17.672601,32.116 21.987399,34.106 6.487599,6.504 13.635903,13.054 23.709903,18.906 9.991,12.58699 21.312,19.46399 33.241,22.553 0.178,0.046 0.362,0.096 0.541,0.13999 12.574,3.27001 25.654,2.30301 38.15,-6.24398 14.094,-1.09702 24.897,-4.98901 35.391,-9.51402 7.484,-0.048 37.417,-7.72899 41.101,-35.87999 3.00001,-6.757 6.46999,-12.829 8.31501,-21.642 35.037,-27.141 9.56699,-63.39 -14.99501,-73.404" />
    </clipPath>
  </defs>
  <sodipodi:namedview
     inkscape:window-maximized="1"
     inkscape:window-y="-11"
     inkscape:window-x="2869"
     inkscape:window-height="2054"
     inkscape:window-width="3840"
     showgrid="false"
     inkscape:current-layer="layer1"
     inkscape:document-units="mm"
     inkscape:cy="711.66195"
     inkscape:cx="1066.539"
     inkscape:zoom="1.0482505"
     inkscape:pageshadow="2"
     inkscape:pageopacity="0.0"
     borderopacity="1.0"
     bordercolor="#666666"
     pagecolor="#ffffff"
     id="base"
     fit-margin-top="0"
     fit-margin-left="0"
     fit-margin-right="0"
     fit-margin-bottom="0"
     inkscape:document-rotation="0"
     inkscape:pagecheckerboard="0">
    <inkscape:grid
       type="xygrid"
       id="grid829"
       originx="0"
       originy="-3.6293944e-006" />
  </sodipodi:namedview>
  <metadata
     id="metadata5">
    <rdf:RDF>
      <cc:Work
         rdf:about="">
        <dc:format>image/svg+xml</dc:format>
        <dc:type
           rdf:resource="http://purl.org/dc/dcmitype/StillImage" />
      </cc:Work>
    </rdf:RDF>
  </metadata>
  <g
     inkscape:label="bg"
     inkscape:groupmode="layer"
     id="layer1"
     transform="translate(0,-40.999996)"
     style="display:inline">
    <rect
       style="opacity:1;fill:none;fill-opacity:1;stroke:none;stroke-width:0.372;stroke-linejoin:miter;stroke-miterlimit:4;stroke-dasharray:none;stroke-opacity:1"
       id="rect815"
       width="256"
       height="256"
       x="0"
       y="40.999996" />
    <rect
       style="fill:#252526;fill-opacity:1;fill-rule:evenodd;stroke:none;stroke-width:1.725;stroke-miterlimit:4;stroke-dasharray:none;stroke-opacity:1"
       id="rect1643"
       width="256"
       height="256"
       x="0"
       y="40.999996" />
  </g>
  <g
     inkscape:groupmode="layer"
     id="layer2"
     inkscape:label="winlogo"
     style="display:inline;opacity:1">
    <path
       id="path818"
       d="m 18.273815,48.35043 89.683195,-12.330228 0.0379,87.330318 -89.640589,0.5149 z m 89.640475,85.06223 0.0663,87.40643 -89.64046,-12.44156 -0.0044,-75.55113 z M 118.78606,34.407215 237.69856,16.886794 V 122.23987 l -118.9125,0.9531 z m 118.94012,99.827485 -0.0285,104.87851 -118.91252,-16.94289 -0.16621,-88.13199 z"
       inkscape:connector-curvature="0"
       style="fill:#ffffff;fill-opacity:1;stroke:none;stroke-width:1.725;stroke-miterlimit:4;stroke-dasharray:none;stroke-opacity:1"
       clip-path="url(#clipPath867)"
       inkscape:path-effect="#path-effect871"
       inkscape:original-d="m 18.273815,48.35043 89.683195,-12.330228 0.0379,87.330318 -89.640589,0.5149 z m 89.640475,85.06223 0.0663,87.40643 -89.64046,-12.44156 -0.0044,-75.55113 z M 118.78606,34.407215 237.69856,16.886794 V 122.23987 l -118.9125,0.9531 z m 118.94012,99.827485 -0.0285,104.87851 -118.91252,-16.94289 -0.16621,-88.13199 z" />
  </g>
  <g
     inkscape:groupmode="layer"
     id="layer3"
     inkscape:label="rpilogo"
     style="display:inline" />
</svg>
